<?xml version="1.0" standalone="no"?>
<!DOCTYPE svg PUBLIC "-//W3C//DTD SVG 20010904//EN"
 "http://www.w3.org/TR/2001/REC-SVG-20010904/DTD/svg10.dtd">
<svg version="1.0" xmlns="http://www.w3.org/2000/svg"
 width="1024.000000pt" height="1024.000000pt" viewBox="0 0 1024.000000 1024.000000"
 preserveAspectRatio="xMidYMid meet">

<g transform="translate(0.000000,1024.000000) scale(0.100000,-0.100000)"
fill="#000000" stroke="none">
<path d="M3577 7997 c-2 -6 -5 -413 -6 -904 l-2 -891 26 -19 c15 -10 58 -45
97 -78 38 -33 96 -82 128 -110 32 -27 104 -90 161 -140 56 -49 141 -123 188
-164 50 -43 97 -94 111 -120 55 -100 426 -643 530 -776 26 -33 88 -119 139
-192 50 -73 96 -135 101 -138 5 -3 19 14 31 37 12 24 36 59 53 79 17 19 45 53
61 75 17 21 46 57 66 79 38 42 64 77 154 210 30 44 61 89 68 100 8 11 44 65
80 120 37 55 88 132 114 172 27 39 71 109 98 154 54 90 125 165 340 356 72 64
141 128 155 142 51 55 180 161 213 175 l34 14 7 402 c8 468 -3 1400 -16 1400
-5 0 -86 -53 -179 -117 -93 -65 -195 -136 -227 -157 -31 -22 -144 -102 -250
-179 -233 -168 -336 -275 -420 -435 -28 -53 -70 -120 -94 -148 -24 -28 -65
-80 -93 -115 l-50 -64 -5 240 -5 240 -125 -4 c-69 -2 -126 -4 -127 -5 -1 0 -5
-104 -9 -229 -4 -125 -10 -230 -14 -232 -14 -9 -183 238 -242 355 -60 118
-173 247 -292 333 -141 103 -450 316 -516 357 -30 19 -96 64 -146 101 -113 83
-130 93 -137 76z m329 -538 c22 -17 80 -59 129 -92 92 -62 270 -201 305 -240
11 -11 37 -47 58 -79 20 -32 101 -151 180 -265 79 -115 177 -257 217 -318 40
-60 88 -126 105 -145 31 -35 31 -36 26 -115 -3 -44 -8 -252 -12 -461 l-7 -382
22 -12 c24 -12 218 -4 243 11 10 7 14 97 18 466 l5 458 39 55 c21 30 42 64 46
76 16 42 181 292 244 370 23 27 66 94 96 148 80 142 129 196 256 284 209 144
334 233 339 243 4 5 13 9 22 9 15 0 16 -52 10 -582 l-6 -583 -33 -25 c-18 -14
-72 -61 -121 -105 -116 -106 -305 -264 -390 -328 -50 -37 -76 -65 -94 -102
-63 -124 -201 -357 -256 -430 -32 -44 -71 -101 -86 -127 -24 -43 -31 -48 -76
-58 -61 -12 -285 -17 -302 -7 -7 4 -29 40 -50 79 -20 39 -74 123 -119 187 -91
128 -194 301 -221 371 -22 60 -26 65 -102 114 -36 24 -147 108 -247 187 -99
79 -195 155 -214 169 -18 14 -46 35 -61 48 l-28 23 5 472 c2 259 4 527 4 595
0 67 4 122 9 122 4 0 26 -14 47 -31z"/>
<path d="M4020 6820 c0 -12 18 -90 41 -174 23 -83 45 -178 50 -211 4 -33 12
-61 16 -62 30 -10 427 -281 482 -329 20 -17 46 -36 59 -43 l22 -12 -2 177 -3
177 -172 117 c-182 123 -391 285 -416 323 -8 12 -29 30 -46 40 -31 18 -31 18
-31 -3z"/>
<path d="M6030 6793 c-125 -109 -327 -264 -420 -324 -58 -37 -122 -79 -142
-93 l-38 -26 0 -142 c0 -79 -3 -160 -6 -180 -10 -57 11 -50 131 46 57 47 135
106 172 132 38 26 93 66 123 90 30 24 75 54 100 67 44 23 45 25 52 83 3 32 15
93 26 134 30 114 54 229 50 241 -2 6 -24 -7 -48 -28z"/>
<path d="M7090 6903 c-24 -38 -97 -153 -163 -258 -66 -104 -156 -246 -200
-315 -44 -69 -100 -155 -124 -192 -24 -37 -43 -70 -43 -73 0 -5 -141 -217
-150 -225 -3 -3 -92 -133 -196 -290 -105 -157 -209 -312 -232 -345 -76 -112
-328 -499 -453 -697 -68 -109 -144 -229 -169 -267 -25 -39 -92 -144 -149 -233
-125 -197 -155 -241 -168 -245 -5 -2 -25 24 -43 59 -18 34 -58 101 -89 150
-31 48 -74 118 -96 155 -22 36 -85 135 -140 219 -55 83 -197 300 -315 480
-118 180 -263 400 -321 489 -58 88 -146 222 -195 298 -103 160 -327 504 -407
627 -218 334 -287 441 -311 485 -47 83 -131 215 -136 215 -3 0 -18 -34 -34
-75 -16 -41 -49 -105 -73 -142 l-44 -68 17 -30 c10 -16 43 -66 75 -110 49 -68
125 -185 437 -670 81 -126 224 -348 297 -460 39 -60 98 -152 131 -203 32 -51
116 -179 185 -285 69 -106 156 -239 194 -297 116 -179 334 -510 404 -613 107
-159 275 -430 369 -594 48 -84 90 -153 94 -153 7 0 98 138 225 340 36 58 89
141 118 185 28 44 83 129 121 188 38 60 98 152 132 205 35 53 100 156 145 227
44 72 100 157 122 190 23 33 90 137 150 230 59 94 167 260 240 370 72 110 166
252 207 315 42 63 92 138 110 165 31 44 77 115 297 457 31 47 90 139 131 204
41 64 113 169 159 232 l83 115 -16 31 c-9 17 -32 56 -50 86 -19 30 -44 85 -56
123 -12 37 -23 67 -24 67 -1 0 -22 -30 -46 -67z"/>
<path d="M7457 6479 c-8 -13 -74 -118 -148 -234 -73 -115 -178 -282 -234 -370
-105 -167 -141 -223 -382 -595 -80 -124 -220 -342 -310 -485 -91 -143 -198
-309 -238 -370 -40 -60 -112 -173 -161 -250 -48 -77 -120 -189 -159 -250 -39
-60 -98 -150 -130 -200 -53 -81 -164 -255 -314 -495 -78 -123 -90 -142 -183
-285 -46 -71 -97 -151 -112 -177 -15 -27 -31 -48 -35 -48 -4 0 -27 35 -51 78
-24 42 -49 82 -54 89 -6 6 -54 79 -106 162 -52 84 -167 261 -255 395 -88 134
-179 275 -202 312 -41 66 -141 221 -268 415 -129 198 -202 311 -313 489 -63
102 -149 238 -191 302 -42 65 -89 139 -105 165 -16 27 -66 104 -111 173 -158
241 -232 355 -264 410 -18 30 -66 107 -107 170 -41 63 -131 209 -200 324 -143
238 -167 276 -174 276 -3 0 -13 -24 -23 -52 -10 -29 -34 -79 -54 -111 -19 -32
-36 -64 -37 -70 -2 -7 -6 -24 -10 -39 -10 -34 14 -88 91 -203 33 -50 82 -125
109 -168 27 -43 63 -99 79 -125 17 -26 59 -94 95 -152 35 -58 105 -168 155
-245 50 -77 102 -158 115 -180 13 -22 70 -110 125 -195 56 -85 155 -240 220
-345 129 -205 160 -255 173 -270 4 -5 55 -83 112 -173 58 -89 147 -226 198
-305 51 -78 125 -193 165 -254 115 -179 570 -867 577 -873 11 -8 140 -212 195
-307 28 -47 66 -104 86 -126 l35 -41 135 200 c216 319 709 1076 881 1352 33
53 193 301 280 435 26 39 64 101 85 135 46 78 26 45 277 434 221 342 262 406
465 723 229 360 332 519 377 585 51 73 51 81 8 183 -14 34 -37 91 -51 127 -30
81 -37 88 -56 59z"/>
<path d="M5017 4343 c-52 -37 -66 -87 -41 -139 11 -21 34 -47 53 -58 32 -19
35 -19 66 -2 46 25 71 83 56 129 -12 35 -40 66 -77 85 -17 9 -28 6 -57 -15z"/>
<path d="M4460 2203 c-92 -4 -114 -9 -134 -28 -19 -20 -11 -72 16 -100 18 -20
32 -20 843 -20 580 0 827 3 835 11 6 6 13 27 17 48 7 46 -14 72 -65 80 -42 6
-1395 14 -1512 9z"/>
</g>
</svg>
